<svg width="2816" height="1536" viewBox="0 0 2816 1536" fill="none" xmlns="http://www.w3.org/2000/svg">
<path d="M933.06 455.839C934.143 455.829 935.227 455.819 936.342 455.81C937.528 455.805 938.713 455.801 939.934 455.797C941.765 455.788 941.765 455.788 943.634 455.779C946.236 455.77 948.838 455.763 951.44 455.76C955.362 455.75 959.283 455.719 963.205 455.687C997.929 455.536 997.929 455.536 1012.44 462.812C1013.18 463.166 1013.93 463.52 1014.7 463.885C1016.81 464.9 1018.91 465.945 1021 467C1022.54 467.744 1022.54 467.744 1024.12 468.504C1061.71 487.625 1077.21 527.057 1093.42 563.443C1094.69 566.314 1095.98 569.181 1097.27 572.047C1100.3 578.804 1103.26 585.593 1106.19 592.394C1106.62 593.389 1106.62 593.389 1107.06 594.404C1108.49 597.725 1109.92 601.047 1111.35 604.372C1113.57 609.556 1115.8 614.72 1118.38 619.742C1121.92 626.678 1124.94 633.854 1128.04 640.992C1134.78 656.478 1141.62 671.917 1148.56 687.312C1148.92 688.112 1149.28 688.911 1149.66 689.735C1151.05 692.827 1152.45 695.92 1153.84 699.01C1155.7 703.112 1157.55 707.218 1159.38 711.332C1159.77 712.223 1160.17 713.114 1160.58 714.033C1161.34 715.735 1162.1 717.438 1162.85 719.142C1168.91 732.703 1176.43 743.579 1187 754C1187.75 754.76 1188.5 755.521 1189.27 756.304C1202.99 769.406 1220.2 775.175 1238.88 775.187C1239.83 775.2 1240.79 775.212 1241.77 775.224C1259.31 775.26 1272.25 767.566 1284.63 755.75C1296.72 743.583 1303.47 728.115 1306.98 711.574C1308.06 706.54 1309.49 701.625 1310.94 696.687C1315.15 682.18 1318.69 667.564 1321.94 652.812C1338.33 578.604 1338.33 578.604 1356 546C1356.53 544.999 1356.53 544.999 1357.07 543.978C1364.37 530.132 1373.25 518.403 1384 507C1384.62 506.326 1385.24 505.651 1385.88 504.957C1409.21 480.506 1443.35 465.685 1476 459C1477.92 458.593 1477.92 458.593 1479.88 458.178C1496.88 454.952 1514.23 455.592 1531.46 455.652C1536.26 455.665 1541.05 455.66 1545.85 455.658C1554.14 455.656 1562.42 455.666 1570.71 455.683C1582.69 455.707 1594.67 455.715 1606.66 455.719C1626.1 455.725 1645.55 455.745 1664.99 455.773C1683.87 455.801 1702.74 455.822 1721.62 455.835C1723.37 455.836 1723.37 455.836 1725.15 455.837C1731 455.841 1736.85 455.845 1742.7 455.849C1791.13 455.88 1839.57 455.933 1888 456C1888.02 458.372 1888.04 460.744 1888.05 463.116C1888.05 463.78 1888.06 464.444 1888.07 465.128C1888.09 471.178 1887.32 476.886 1886.19 482.812C1886.02 483.758 1885.86 484.703 1885.69 485.678C1880.14 516.154 1863.04 545.13 1837.76 563.332C1817.11 577.324 1794.47 586.22 1769.35 586.113C1767.97 586.114 1767.97 586.114 1766.57 586.114C1763.56 586.113 1760.56 586.105 1757.56 586.097C1755.46 586.096 1753.37 586.094 1751.27 586.093C1745.79 586.089 1740.3 586.08 1734.81 586.068C1729.2 586.058 1723.59 586.054 1717.97 586.049C1706.98 586.038 1695.99 586.021 1685 586C1685 586.889 1685 587.778 1685 588.694C1685.07 641.411 1685.12 694.128 1685.15 746.846C1685.16 753.179 1685.16 759.513 1685.16 765.846C1685.17 767.107 1685.17 768.368 1685.17 769.667C1685.18 790.067 1685.2 810.468 1685.23 830.869C1685.26 851.81 1685.28 872.752 1685.28 893.693C1685.29 906.61 1685.3 919.526 1685.32 932.443C1685.34 941.306 1685.34 950.17 1685.34 959.034C1685.34 964.143 1685.34 969.253 1685.36 974.363C1685.37 979.05 1685.37 983.737 1685.36 988.425C1685.36 990.111 1685.37 991.798 1685.37 993.485C1685.45 1007.08 1684.68 1020.97 1678.69 1033.44C1678.38 1034.1 1678.08 1034.76 1677.76 1035.45C1669.46 1052.99 1655.1 1067.68 1636.89 1074.83C1628.06 1077.95 1619.51 1080.13 1610.08 1080.11C1609.41 1080.11 1608.75 1080.11 1608.06 1080.11C1605.89 1080.11 1603.71 1080.11 1601.54 1080.1C1600.02 1080.1 1598.51 1080.09 1596.99 1080.09C1593.02 1080.09 1589.04 1080.08 1585.07 1080.07C1581 1080.06 1576.94 1080.05 1572.88 1080.05C1564.92 1080.04 1556.96 1080.02 1549 1080C1548.93 1021.12 1548.88 962.238 1548.85 903.357C1548.84 896.4 1548.84 889.442 1548.84 882.484C1548.84 881.792 1548.83 881.099 1548.83 880.386C1548.82 857.979 1548.8 835.573 1548.77 813.166C1548.74 789.469 1548.72 765.773 1548.72 742.076C1548.71 727.893 1548.7 713.71 1548.68 699.527C1548.66 689.789 1548.66 680.052 1548.66 670.314C1548.66 664.704 1548.66 659.093 1548.64 653.483C1548.63 648.332 1548.63 643.181 1548.64 638.03C1548.64 636.181 1548.64 634.331 1548.63 632.481C1548.55 616.723 1549.95 601.269 1554 586C1532.55 586.704 1511.7 587.43 1494.97 602.875C1482.55 616.378 1477.83 634.501 1473.25 651.812C1473.04 652.59 1472.83 653.367 1472.62 654.168C1465.78 679.756 1459.99 705.608 1454.44 731.5C1450.94 747.809 1446.78 763.938 1442.51 780.061C1442.02 781.931 1441.53 783.803 1441.04 785.675C1438.33 795.989 1435.37 806.221 1432.31 816.437C1431.92 817.754 1431.92 817.754 1431.52 819.097C1427.52 832.414 1423.21 845.499 1418.03 858.412C1416.98 861.042 1415.96 863.683 1414.95 866.328C1411.17 876.109 1406.99 885.553 1402.12 894.841C1400.89 897.215 1399.68 899.603 1398.47 901.992C1385.21 928.038 1368.81 952.076 1349.1 973.679C1347.28 975.694 1345.51 977.741 1343.75 979.812C1336.11 988.546 1327.81 996.653 1318.71 1003.84C1316.9 1005.28 1315.13 1006.76 1313.39 1008.28C1299.62 1020.28 1283.81 1029.96 1267.93 1038.91C1266.69 1039.61 1265.45 1040.32 1264.22 1041.04C1252.94 1047.59 1240.94 1052.17 1228.8 1056.87C1226.31 1057.87 1223.89 1058.95 1221.46 1060.08C1216.31 1062.4 1210.99 1063.95 1205.56 1065.5C1204.52 1065.8 1203.47 1066.1 1202.39 1066.41C1193.33 1068.98 1184.22 1071.14 1175 1073C1174.25 1073.16 1173.5 1073.31 1172.72 1073.48C1165.91 1074.88 1159.06 1076 1152.19 1077.06C1151.1 1077.24 1150.02 1077.41 1148.9 1077.59C1147.81 1077.76 1146.72 1077.92 1145.61 1078.1C1144.17 1078.32 1144.17 1078.32 1142.7 1078.55C1131.23 1079.94 1119.86 1080.14 1108.32 1080.1C1106.66 1080.1 1105 1080.09 1103.34 1080.09C1099 1080.09 1094.67 1080.08 1090.34 1080.07C1085.9 1080.06 1081.46 1080.05 1077.03 1080.05C1068.35 1080.04 1059.68 1080.02 1051 1080C1050.96 1075.37 1050.93 1070.74 1050.91 1066.11C1050.9 1064.54 1050.89 1062.97 1050.88 1061.4C1050.59 1028.76 1061.12 999.679 1083.47 975.535C1096.72 962.265 1111.59 952.837 1129 946C1130.68 945.34 1130.68 945.34 1132.39 944.668C1139.31 942.085 1146.32 940.04 1153.44 938.062C1196.9 925.913 1231.15 898.554 1253.63 859.501C1258.25 851.092 1262.43 842.44 1266.62 833.814C1268.07 830.867 1269.53 827.932 1271 825C1269.52 826.206 1269.52 826.206 1268 827.437C1253.39 838.379 1236.3 845.57 1219 851C1217.76 851.431 1217.76 851.431 1216.5 851.871C1202.42 856.595 1187.96 857.289 1173.25 857.312C1172.56 857.316 1171.87 857.319 1171.15 857.323C1157.9 857.36 1144.84 856.361 1132.13 852.375C1130.86 851.983 1130.86 851.983 1129.57 851.584C1109.07 844.987 1089.79 833.889 1074.58 818.577C1072.92 816.919 1071.22 815.306 1069.52 813.695C1045.14 790.415 1032.5 760.684 1019.69 730.051C1013.13 714.432 1006.19 698.975 999.318 683.489C996.238 676.541 993.177 669.585 990.125 662.625C986.376 654.085 982.573 645.57 978.75 637.062C970.52 618.743 962.402 600.373 954.363 581.969C953.788 580.655 953.213 579.341 952.637 578.028C951.192 574.732 949.766 571.43 948.371 568.112C945.757 561.947 943.07 555.969 939.704 550.173C923.261 521.765 923.782 489.052 927 457C928.68 455.32 930.755 455.855 933.06 455.839Z" fill="#4A5D6A"/>
<path d="M1509.38 487.886C1510.6 487.886 1511.82 487.886 1513.08 487.886C1516.4 487.887 1519.73 487.892 1523.05 487.899C1526.53 487.905 1530.02 487.905 1533.5 487.907C1540.08 487.91 1546.67 487.918 1553.25 487.928C1560.75 487.939 1568.25 487.945 1575.75 487.95C1591.17 487.96 1606.58 487.978 1622 488C1619.45 490.588 1616.92 492.899 1614 495.063C1601.33 504.823 1590.29 516.157 1580.94 529.125C1580.48 529.75 1580.02 530.376 1579.55 531.02C1574.26 538.552 1570.22 546.838 1566 555C1564.83 555.02 1563.65 555.04 1562.44 555.06C1558.03 555.137 1553.61 555.226 1549.2 555.317C1547.3 555.355 1545.4 555.39 1543.5 555.422C1522.18 555.711 1522.18 555.711 1502 562C1500.93 562.472 1499.86 562.944 1498.76 563.43C1475.94 574.039 1459.61 592.293 1450.93 615.91C1446.88 627.642 1443.36 639.526 1440.56 651.617C1439.89 654.469 1439.19 657.312 1438.49 660.156C1435.19 673.59 1432.08 687.05 1429.13 700.563C1425.43 717.432 1421.3 734.178 1417.04 750.912C1415.64 756.409 1414.27 761.913 1412.9 767.417C1409.41 781.356 1405.28 795.041 1401.01 808.758C1398.94 815.418 1396.87 822.08 1394.88 828.762C1394.59 829.727 1394.3 830.693 1394 831.688C1393.57 833.147 1393.57 833.147 1393.13 834.637C1391.61 839.173 1389.81 843.575 1388 848C1387.42 849.427 1387.42 849.427 1386.82 850.884C1378.1 872.142 1368.8 892.856 1356 912C1355.56 912.667 1355.11 913.335 1354.66 914.022C1346.4 926.385 1337.48 938.102 1328.01 949.562C1326.67 951.19 1325.35 952.836 1324.05 954.5C1321.85 957.182 1319.48 959.572 1317 962C1316.24 962.779 1315.49 963.557 1314.71 964.359C1308.81 970.397 1302.6 975.752 1296 981C1294.85 981.946 1293.71 982.894 1292.57 983.844C1274.07 999.106 1253.33 1010.62 1231.84 1021.09C1230.56 1021.72 1229.29 1022.36 1228.03 1023.02C1223.62 1025.27 1219.18 1027.19 1214.5 1028.81C1213.44 1029.18 1213.44 1029.18 1212.36 1029.56C1202.86 1032.82 1193.19 1035.55 1183.53 1038.28C1181.42 1038.88 1179.32 1039.51 1177.22 1040.14C1173.85 1041.04 1170.58 1041.56 1167.13 1042C1163.28 1042.49 1159.52 1043.08 1155.74 1043.96C1132.22 1049.31 1107.95 1048.34 1084 1048C1083.78 1028.33 1095.26 1008.69 1108.63 994.875C1114.46 989.072 1120.73 984.883 1128 981C1128.85 980.542 1129.69 980.085 1130.56 979.613C1139.55 975.162 1149.4 972.76 1159 970C1182.23 963.293 1204.37 954.448 1224 940C1225.07 939.228 1226.13 938.456 1227.23 937.66C1241.51 927.056 1254.2 914.166 1264.68 899.809C1265.59 898.565 1266.51 897.328 1267.43 896.098C1276.23 884.398 1283.35 872.024 1290 859C1290.72 857.595 1290.72 857.595 1291.45 856.162C1298.71 841.805 1304.66 827.164 1310 812C1310.48 810.66 1310.95 809.32 1311.43 807.98C1321.44 779.719 1329.54 751.108 1337.06 722.092C1337.5 720.381 1337.94 718.671 1338.39 716.961C1338.71 715.707 1338.71 715.707 1339.04 714.428C1340.52 708.777 1342.07 703.152 1343.65 697.531C1345.65 690.443 1347.35 683.331 1348.88 676.125C1351.71 663.055 1354.9 650.092 1358.21 637.134C1358.98 634.067 1359.75 630.997 1360.51 627.926C1372.24 580.99 1388.54 537.326 1431.06 510C1455.1 495.61 1481.31 487.798 1509.38 487.886Z" fill="#F7F8F3"/>
<path d="M1723.04 487.886C1724.45 487.887 1725.86 487.887 1727.27 487.886C1731.07 487.886 1734.88 487.892 1738.69 487.899C1742.67 487.905 1746.66 487.905 1750.65 487.907C1758.19 487.91 1765.73 487.918 1773.27 487.928C1781.85 487.939 1790.44 487.945 1799.03 487.95C1816.69 487.96 1834.34 487.978 1852 488C1851.54 489.582 1851.08 491.162 1850.61 492.742C1850.22 494.063 1850.22 494.063 1849.83 495.41C1848.64 499.114 1847.07 502.538 1845.31 506C1844.79 507.027 1844.79 507.027 1844.27 508.076C1841.19 513.989 1837.42 519.011 1833 524C1832.23 524.967 1831.47 525.934 1830.68 526.93C1827.91 530.261 1824.74 532.869 1821.31 535.5C1820.69 535.978 1820.07 536.456 1819.43 536.948C1809.59 544.429 1800.06 549.081 1788 552C1787.01 552.251 1786.03 552.502 1785.01 552.761C1771.55 555.747 1758.13 555.379 1744.41 555.293C1741.76 555.287 1739.12 555.283 1736.47 555.28C1730.26 555.271 1724.05 555.246 1717.85 555.216C1710.77 555.182 1703.69 555.166 1696.61 555.151C1682.07 555.12 1667.54 555.067 1653 555C1653 555.952 1653 556.904 1653 557.884C1653.07 614.301 1653.12 670.717 1653.15 727.134C1653.16 733.908 1653.16 740.682 1653.16 747.456C1653.17 748.13 1653.17 748.804 1653.17 749.499C1653.18 771.338 1653.2 793.177 1653.23 815.016C1653.26 838.1 1653.28 861.184 1653.28 884.268C1653.29 898.093 1653.3 911.919 1653.32 925.744C1653.34 935.225 1653.34 944.706 1653.34 954.187C1653.34 959.656 1653.34 965.126 1653.36 970.596C1653.37 975.607 1653.37 980.619 1653.36 985.631C1653.36 987.44 1653.37 989.249 1653.37 991.058C1653.46 1008.32 1651.13 1023.48 1638.88 1036.6C1630.39 1043.68 1619.82 1048.17 1608.83 1048.1C1608.04 1048.1 1607.24 1048.09 1606.42 1048.09C1603.89 1048.09 1601.35 1048.08 1598.81 1048.06C1597.09 1048.06 1595.37 1048.05 1593.65 1048.05C1589.43 1048.04 1585.22 1048.02 1581 1048C1580.91 993.502 1580.84 939.003 1580.8 884.505C1580.79 878.062 1580.79 871.619 1580.78 865.175C1580.78 863.893 1580.78 862.61 1580.78 861.288C1580.76 840.557 1580.73 819.825 1580.69 799.094C1580.65 777.799 1580.63 756.505 1580.62 735.211C1580.62 722.086 1580.6 708.961 1580.57 695.836C1580.55 686.819 1580.54 677.802 1580.55 668.785C1580.55 663.593 1580.54 658.401 1580.52 653.21C1580.33 604.554 1587.93 565.642 1622 529C1622.55 528.394 1623.1 527.788 1623.67 527.164C1635.71 514.472 1651.84 504.479 1668 498C1669.03 497.581 1670.06 497.162 1671.12 496.73C1687.91 490.304 1705.13 487.837 1723.04 487.886Z" fill="#F6F8F2"/>
<path d="M948 488C952.976 487.875 957.952 487.785 962.929 487.726C964.615 487.701 966.3 487.667 967.985 487.623C989.889 487.068 1007.23 493.684 1024 508C1025.01 508.743 1026.02 509.485 1027.06 510.25C1044.69 525.525 1053.38 552.594 1062.5 573.332C1065.34 579.798 1068.26 586.232 1071.17 592.666C1076.38 604.161 1081.55 615.678 1086.65 627.219C1089.5 633.633 1092.36 640.035 1095.25 646.43C1099.69 656.3 1104.09 666.191 1108.48 676.086C1111.1 681.974 1113.72 687.86 1116.33 693.746C1118.24 698.041 1120.15 702.336 1122.05 706.632C1137.12 742.15 1137.12 742.15 1160.5 772.5C1163 775 1163 775 1163 777C1163.55 777.236 1164.1 777.472 1164.67 777.715C1167.58 779.319 1169.77 781.353 1172.25 783.563C1179.19 789.542 1186.88 793.832 1195 798C1196.25 798.648 1196.25 798.648 1197.53 799.309C1210.12 805.335 1223.28 806.889 1237 808C1237 808.66 1237 809.32 1237 810C1217 818.762 1198.57 825.419 1176.44 825.313C1175.22 825.308 1173.99 825.303 1172.73 825.298C1146.68 824.964 1121.7 817.721 1102 800C1101.08 799.195 1100.15 798.389 1099.2 797.559C1091.11 790.387 1084.21 782.504 1077.56 774C1077.04 773.36 1076.52 772.719 1075.98 772.059C1066.68 760.11 1061.26 745.292 1055.44 731.438C1051.63 722.392 1047.77 713.388 1043.58 704.51C1040.35 697.645 1037.3 690.7 1034.25 683.75C1033.27 681.525 1032.29 679.3 1031.31 677.075C1030.62 675.505 1029.93 673.936 1029.24 672.366C1026.65 666.463 1024.04 660.565 1021.43 654.668C1021.05 653.793 1020.66 652.917 1020.26 652.016C1019.47 650.226 1018.68 648.437 1017.89 646.647C1010.7 630.408 1003.55 614.157 996.42 597.895C991.387 586.415 986.316 574.953 981.205 563.507C977.62 555.455 974.143 547.359 970.688 539.25C966.632 529.743 962.488 520.312 958 511C956.651 508.199 955.302 505.397 953.958 502.594C953.042 500.686 952.122 498.781 951.199 496.877C950.784 496.014 950.369 495.151 949.941 494.262C949.38 493.101 949.38 493.101 948.807 491.917C948 490 948 490 948 488Z" fill="#F7F8F3"/>
</svg>
